# xmcd
#
# Track frame offsets: 
#        150
#        20354
#        30427
#        49716
#        60660
#        76151
#        89797
#        109952
#        123033
#        134859
#
# Disc length: 2124 seconds
#
# Revision: 0
# Processed by: cddbd v1.5.2PL0 Copyright (c) Steve Scherf et al.
# Submitted via: ExactAudioCopy v1.1
#
DISCID=81084a0a
DTITLE=Panhandle - Panhandle 
DYEAR=1972
DGENRE=Rock
TTITLE0=Amoreena
TTITLE1=Mama Told Me Not To Come
TTITLE2=Penthouse Pauper
TTITLE3=Dimples
TTITLE4=Bitch
TTITLE5=I Heard It Through The Grapevine
TTITLE6=Susie-Q
TTITLE7=From The Film Of The Same Name
TTITLE8=Up Around The Bend
TTITLE9=I Wanna Take You Higher
EXTD=
EXTT0=
EXTT1=
EXTT2=
EXTT3=
EXTT4=
EXTT5=
EXTT6=
EXTT7=
EXTT8=
EXTT9=
PLAYORDER=
